<svg width="10" height="10" viewBox="0 0 10 10" fill="none" xmlns="http://www.w3.org/2000/svg">
<path fill-rule="evenodd" clip-rule="evenodd" d="M9.87754 1.52038C10.1425 2.00493 9.96454 2.61257 9.47998 2.87756C8.10863 3.62752 6.82076 5.19753 5.83744 6.70323C5.35808 7.43725 4.97349 8.12066 4.70899 8.62036C4.577 8.86972 4.47558 9.07205 4.40788 9.2105C4.37404 9.27969 4.34867 9.33283 4.33216 9.3678L4.3141 9.40633L4.31015 9.41485L4.30965 9.41595C4.15515 9.75365 3.82609 9.9782 3.45528 9.99867C3.08436 10.0191 2.73266 9.83231 2.54197 9.5135C2.23126 8.99403 1.73753 8.51982 1.27997 8.15807C1.05765 7.9823 0.85753 7.84372 0.714718 7.75017C0.643589 7.70358 0.587438 7.66865 0.550786 7.64636C0.53248 7.63522 0.519105 7.62728 0.511229 7.62265L0.504429 7.61866C0.0249384 7.34496 -0.142031 6.73442 0.131511 6.25478C0.405118 5.77503 1.01583 5.60792 1.49558 5.88153L1.00017 6.75019C1.49558 5.88153 1.49539 5.88142 1.49558 5.88153L1.49729 5.8825L1.49959 5.88382L1.50594 5.88749L1.52544 5.89888C1.5414 5.90827 1.56318 5.92123 1.59018 5.93766C1.64416 5.97049 1.71925 6.0173 1.81063 6.07716C1.99281 6.1965 2.2427 6.36964 2.52037 6.58918C2.73257 6.75696 2.96985 6.95869 3.20939 7.19111C3.46624 6.72973 3.78717 6.18499 4.1629 5.60965C5.17959 4.05285 6.69171 2.12286 8.52036 1.12282C9.00492 0.857824 9.61255 1.03582 9.87754 1.52038Z" fill="#8F8881"/>
</svg>
